<?xml version="1.0" standalone="no"?>
<!DOCTYPE svg PUBLIC "-//W3C//DTD SVG 20010904//EN"
 "http://www.w3.org/TR/2001/REC-SVG-20010904/DTD/svg10.dtd">
<svg version="1.0" xmlns="http://www.w3.org/2000/svg"
 width="1203.000000pt" height="1280.000000pt" viewBox="0 0 1203.000000 1280.000000"
 preserveAspectRatio="xMidYMid meet">
<metadata>
Created by potrace 1.15, written by Peter Selinger 2001-2017
</metadata>
<g transform="translate(0.000000,1280.000000) scale(0.100000,-0.100000)"
fill="#000000" stroke="none">
<path d="M10925 12499 c-126 -27 -278 -99 -431 -200 -204 -137 -291 -207 -559
-458 -212 -199 -415 -298 -645 -315 -117 -9 -546 21 -770 53 -36 5 -99 14
-140 20 -41 6 -104 15 -140 21 -36 5 -126 17 -200 25 -146 17 -248 29 -350 44
-36 5 -103 14 -150 20 -47 6 -114 16 -150 22 -140 23 -244 39 -405 64 -159 24
-237 36 -285 45 -25 5 -79 13 -120 19 -41 6 -147 22 -235 36 -88 14 -188 30
-223 35 -34 6 -90 14 -125 20 -64 10 -165 24 -297 41 -41 6 -106 14 -145 20
-236 31 -546 57 -775 65 -177 6 -383 -8 -595 -41 -407 -62 -836 -214 -1230
-435 -198 -110 -342 -209 -654 -445 -207 -156 -626 -567 -818 -800 -142 -173
-319 -424 -423 -600 -159 -270 -220 -426 -220 -560 0 -141 85 -228 206 -211
96 13 178 79 323 261 188 235 248 303 471 526 359 361 596 538 963 721 374
187 709 280 1217 338 276 31 894 19 1450 -29 293 -26 635 -61 870 -91 47 -6
141 -17 210 -25 69 -9 157 -20 195 -25 39 -6 104 -15 145 -20 41 -5 104 -14
140 -19 36 -5 103 -15 150 -21 47 -6 164 -22 260 -36 96 -14 225 -32 285 -40
61 -7 144 -18 185 -24 216 -30 487 -60 543 -60 20 0 37 -3 37 -6 0 -6 -65 -86
-125 -154 -22 -25 -71 -84 -110 -130 -38 -46 -106 -125 -150 -175 -44 -50
-114 -131 -155 -180 -94 -110 -182 -212 -285 -330 -44 -50 -116 -133 -160
-185 -44 -51 -100 -116 -125 -145 -25 -28 -83 -96 -130 -150 -47 -54 -123
-142 -170 -195 -47 -53 -123 -141 -170 -195 -47 -55 -107 -124 -135 -155 -27
-31 -86 -98 -130 -149 -44 -51 -91 -106 -105 -121 -14 -15 -65 -74 -115 -131
-49 -56 -110 -126 -135 -154 -25 -28 -85 -98 -135 -155 -49 -57 -131 -149
-180 -204 -50 -56 -104 -117 -120 -137 -17 -20 -109 -125 -205 -234 -96 -109
-191 -217 -210 -239 -19 -23 -75 -86 -125 -142 -49 -55 -133 -149 -185 -209
-96 -110 -116 -133 -292 -331 -53 -60 -106 -120 -118 -134 -35 -41 -211 -239
-270 -305 -30 -33 -98 -110 -150 -170 -52 -60 -142 -161 -200 -225 -58 -64
-150 -167 -205 -230 -55 -62 -125 -141 -155 -175 -30 -33 -102 -115 -160 -180
-58 -65 -154 -174 -215 -240 -60 -67 -157 -175 -215 -240 -58 -66 -132 -149
-165 -185 -33 -36 -109 -122 -170 -189 -60 -68 -123 -138 -140 -156 -16 -17
-79 -87 -140 -155 -60 -68 -139 -156 -175 -195 -36 -39 -119 -131 -185 -205
-66 -74 -176 -195 -245 -270 -69 -75 -186 -203 -260 -285 -74 -82 -169 -186
-210 -230 -41 -45 -140 -153 -220 -240 -80 -87 -179 -195 -220 -240 -74 -79
-206 -233 -245 -286 -11 -15 -53 -71 -93 -124 -233 -308 -380 -580 -410 -758
-14 -85 -8 -189 14 -231 47 -91 134 -124 237 -91 47 14 80 39 203 149 553 492
884 702 1261 802 242 64 829 32 1243 -67 213 -52 452 -129 945 -305 583 -208
1114 -386 1460 -488 50 -15 101 -31 115 -36 65 -23 597 -165 735 -195 33 -7
103 -23 155 -35 473 -105 932 -152 1269 -130 155 10 201 15 341 41 311 57 705
184 1005 324 167 78 203 96 300 147 251 134 593 355 775 500 384 306 617 533
885 858 101 122 231 298 299 405 21 33 46 72 56 86 36 52 108 196 128 254 39
117 47 161 47 255 0 80 -4 103 -24 143 -40 81 -102 115 -187 102 -59 -8 -108
-53 -246 -224 -180 -222 -278 -332 -473 -526 -341 -342 -666 -590 -1032 -790
-124 -67 -330 -161 -338 -154 -2 3 25 63 61 134 51 102 73 161 101 270 32 126
36 157 40 310 21 705 -315 1388 -772 1569 -189 76 -387 65 -565 -31 -308 -166
-537 -567 -605 -1058 -24 -176 -29 -419 -11 -559 40 -305 164 -577 355 -778
l35 -38 -42 0 c-22 0 -74 4 -114 10 -40 5 -127 17 -193 26 -326 43 -733 131
-1135 246 -96 27 -188 53 -205 58 -16 4 -68 20 -115 34 -47 15 -98 31 -115 35
-16 5 -129 41 -250 81 -261 85 -654 207 -780 241 -16 4 -70 19 -120 34 -331
95 -883 230 -1170 285 -158 31 -271 50 -410 70 -75 11 -391 40 -438 40 -25 0
-27 3 -22 23 18 60 91 160 265 362 41 48 91 107 110 130 19 23 98 116 175 205
148 172 341 397 644 750 101 118 200 233 220 256 20 22 47 53 61 70 22 26 116
134 250 289 25 28 81 94 125 145 44 52 118 137 165 190 47 53 121 138 165 190
44 51 103 119 130 150 28 31 88 100 135 155 47 54 123 142 170 195 158 180
225 256 310 355 47 54 128 147 180 205 52 59 133 151 180 205 47 55 108 124
135 155 28 31 91 103 140 160 50 57 135 154 190 215 55 61 141 158 190 215 50
57 115 131 145 165 30 34 100 112 155 175 55 62 105 118 110 124 6 6 60 67
120 135 61 69 135 152 165 186 30 34 100 113 155 175 55 63 147 166 205 230
58 64 152 170 210 235 58 66 132 149 165 185 33 36 110 122 170 190 61 68 162
181 225 250 63 70 167 184 230 255 63 71 144 161 180 200 36 39 121 133 190
209 69 76 136 151 150 166 14 15 86 94 160 176 74 81 169 185 210 229 41 45
138 150 215 235 77 85 212 228 299 319 144 150 234 251 336 375 183 224 275
344 365 476 104 153 144 272 131 392 -11 107 -64 173 -163 203 -54 16 -61 17
-118 4z"/>
</g>
</svg>
